<mxfile host="65bd71144e">
    <diagram name="ページ1" id="cyAzPqJOBOT-xxfSPa6N">
        <mxGraphModel dx="243" dy="323" grid="1" gridSize="10" guides="1" tooltips="1" connect="1" arrows="1" fold="1" page="1" pageScale="1" pageWidth="827" pageHeight="1169" math="0" shadow="0">
            <root>
                <mxCell id="0"/>
                <mxCell id="1" parent="0"/>
                <mxCell id="O8KZtIP4DPzkCtwMNkb9-1" value="Actor" style="shape=umlActor;verticalLabelPosition=bottom;verticalAlign=top;html=1;outlineConnect=0;" parent="1" vertex="1">
                    <mxGeometry x="220" y="180" width="30" height="60" as="geometry"/>
                </mxCell>
                <mxCell id="O8KZtIP4DPzkCtwMNkb9-3" value="" style="endArrow=block;dashed=1;endFill=0;endSize=12;html=1;rounded=0;" parent="1" target="O8KZtIP4DPzkCtwMNkb9-1" edge="1">
                    <mxGeometry width="160" relative="1" as="geometry">
                        <mxPoint x="90" y="110" as="sourcePoint"/>
                        <mxPoint x="490" y="240" as="targetPoint"/>
                    </mxGeometry>
                </mxCell>
                <mxCell id="O8KZtIP4DPzkCtwMNkb9-4" value="アクター" style="text;html=1;align=center;verticalAlign=middle;resizable=0;points=[];autosize=1;strokeColor=none;fillColor=none;" parent="1" vertex="1">
                    <mxGeometry x="20" y="78" width="70" height="30" as="geometry"/>
                </mxCell>
                <mxCell id="O8KZtIP4DPzkCtwMNkb9-8" value="" style="rounded=0;whiteSpace=wrap;html=1;" parent="1" vertex="1">
                    <mxGeometry x="370" y="100" width="320" height="190" as="geometry"/>
                </mxCell>
                <mxCell id="O8KZtIP4DPzkCtwMNkb9-16" style="edgeStyle=none;rounded=0;orthogonalLoop=1;jettySize=auto;html=1;exitX=0;exitY=0.5;exitDx=0;exitDy=0;" parent="1" source="O8KZtIP4DPzkCtwMNkb9-11" edge="1">
                    <mxGeometry relative="1" as="geometry">
                        <mxPoint x="280" y="200" as="targetPoint"/>
                    </mxGeometry>
                </mxCell>
                <mxCell id="O8KZtIP4DPzkCtwMNkb9-11" value="名前を変更" style="ellipse;whiteSpace=wrap;html=1;" parent="1" vertex="1">
                    <mxGeometry x="450" y="130" width="140" height="40" as="geometry"/>
                </mxCell>
                <mxCell id="O8KZtIP4DPzkCtwMNkb9-17" style="edgeStyle=none;rounded=0;orthogonalLoop=1;jettySize=auto;html=1;exitX=0;exitY=0.5;exitDx=0;exitDy=0;" parent="1" source="O8KZtIP4DPzkCtwMNkb9-12" edge="1">
                    <mxGeometry relative="1" as="geometry">
                        <mxPoint x="280" y="200" as="targetPoint"/>
                    </mxGeometry>
                </mxCell>
                <mxCell id="O8KZtIP4DPzkCtwMNkb9-12" value="時刻にあった編集&lt;div&gt;をする&lt;/div&gt;" style="ellipse;whiteSpace=wrap;html=1;" parent="1" vertex="1">
                    <mxGeometry x="450" y="170" width="140" height="40" as="geometry"/>
                </mxCell>
                <mxCell id="O8KZtIP4DPzkCtwMNkb9-13" value="システム内部" style="text;html=1;align=center;verticalAlign=middle;resizable=0;points=[];autosize=1;strokeColor=none;fillColor=none;" parent="1" vertex="1">
                    <mxGeometry x="470" y="108" width="100" height="30" as="geometry"/>
                </mxCell>
                <mxCell id="2" value="足し算をする" style="ellipse;whiteSpace=wrap;html=1;" vertex="1" parent="1">
                    <mxGeometry x="450" y="220" width="140" height="40" as="geometry"/>
                </mxCell>
                <mxCell id="3" style="edgeStyle=none;rounded=0;orthogonalLoop=1;jettySize=auto;html=1;exitX=0;exitY=0.5;exitDx=0;exitDy=0;" edge="1" parent="1" source="2">
                    <mxGeometry relative="1" as="geometry">
                        <mxPoint x="280" y="200" as="targetPoint"/>
                        <mxPoint x="460" y="200" as="sourcePoint"/>
                    </mxGeometry>
                </mxCell>
            </root>
        </mxGraphModel>
    </diagram>
</mxfile>